<?xml version="1.0" standalone="no"?>
<!DOCTYPE svg PUBLIC "-//W3C//DTD SVG 20010904//EN"
 "http://www.w3.org/TR/2001/REC-SVG-20010904/DTD/svg10.dtd">
<svg version="1.0" xmlns="http://www.w3.org/2000/svg"
 width="512.000000pt" height="512.000000pt" viewBox="0 0 512.000000 512.000000"
 preserveAspectRatio="xMidYMid meet">
<metadata>
Created by potrace 1.16, written by Peter Selinger 2001-2019
</metadata>
<g transform="translate(0.000000,512.000000) scale(0.100000,-0.100000)"
fill="#000000" stroke="none">
<path d="M2515 4385 c-16 -8 -41 -14 -55 -15 -15 0 -31 -5 -38 -12 -16 -16
-15 -63 2 -77 8 -7 16 -44 20 -97 4 -47 12 -98 18 -112 5 -15 12 -38 14 -52
11 -64 14 -70 39 -70 43 0 29 -29 -51 -112 -47 -48 -74 -83 -71 -92 3 -8 -2
-36 -12 -63 -10 -26 -22 -74 -26 -106 -7 -59 -55 -218 -82 -271 -8 -15 -10
-26 -5 -22 5 3 24 42 42 86 l32 80 63 -80 c92 -118 128 -226 140 -417 1 -29 6
-69 9 -88 6 -32 3 -41 -27 -74 -19 -21 -53 -66 -76 -99 l-42 -62 40 0 c35 0
43 4 56 29 21 42 188 262 216 286 l23 20 -15 -25 c-54 -87 -185 -288 -197
-302 -12 -14 -30 -18 -79 -18 -44 0 -63 -4 -63 -12 0 -7 -32 -53 -71 -103 -39
-49 -85 -118 -103 -153 -29 -60 -33 -63 -60 -58 -16 3 -39 6 -53 6 -20 0 -23
4 -18 20 3 10 1 37 -6 60 -7 22 -10 43 -7 45 3 3 27 1 53 -5 55 -12 65 -6 65
46 0 37 -11 48 -66 63 -46 12 -64 40 -64 96 0 37 62 250 86 297 9 17 13 32 10
36 -3 3 -21 -27 -39 -67 -28 -63 -35 -71 -54 -66 -44 10 -47 -12 -56 -385 -2
-71 -10 -92 -32 -84 -32 13 -44 -69 -19 -131 7 -18 6 -19 -10 -5 -10 8 -22 23
-27 35 -8 16 -8 15 -4 -7 8 -39 -1 -35 -25 13 -12 23 -24 39 -26 36 -3 -3 2
-19 11 -37 9 -18 15 -34 12 -36 -2 -2 -12 12 -23 31 -15 27 -16 39 -7 53 6 10
20 57 32 104 21 83 21 89 6 150 -22 87 -56 191 -66 202 -9 10 -57 -39 -70 -72
-14 -37 -10 -98 10 -151 l19 -50 -27 5 c-55 11 -210 -69 -197 -102 3 -7 0 -16
-6 -20 -7 -4 -8 -3 -4 4 4 7 5 12 2 12 -10 0 -37 -61 -31 -70 3 -6 2 -10 -3
-10 -5 0 -12 -9 -15 -20 -4 -17 -12 -20 -47 -18 -46 2 -60 -10 -60 -54 0 -36
25 -58 66 -58 28 0 34 -4 34 -20 0 -41 40 -100 88 -130 26 -17 55 -28 65 -26
10 3 14 0 10 -7 -4 -6 0 -8 10 -4 10 3 17 2 17 -3 0 -6 23 -10 52 -10 103 0
180 64 215 179 9 31 18 57 19 59 1 2 19 5 39 6 20 2 41 8 48 15 6 6 31 11 54
11 l44 0 -7 -34 c-3 -19 2 -72 11 -121 l17 -86 -25 -47 c-14 -26 -53 -123 -87
-216 -61 -169 -96 -247 -132 -299 -15 -21 -25 -26 -44 -21 -20 5 -24 3 -24
-17 0 -43 -39 -73 -75 -58 -60 24 -106 -1 -89 -49 11 -33 71 -67 91 -50 9 7
13 7 13 -1 0 -22 -101 -62 -183 -73 -186 -24 -226 -39 -196 -74 22 -27 65 -43
196 -75 191 -46 273 -58 422 -65 108 -5 141 -10 162 -24 37 -26 85 -37 269
-64 88 -13 163 -26 167 -29 3 -4 0 -13 -6 -21 -34 -41 38 -58 196 -47 121 8
122 9 164 45 24 20 58 38 78 41 20 4 55 12 79 19 23 7 42 10 42 5 0 -13 -30
-25 -88 -38 -59 -12 -95 -29 -131 -60 -31 -27 -21 -26 53 3 34 13 91 29 127
36 93 17 99 22 61 58 -19 18 -32 40 -32 55 0 13 -7 41 -15 60 -8 20 -15 50
-15 66 0 16 -4 33 -10 36 -5 3 -10 -1 -10 -9 0 -9 -4 -16 -9 -16 -13 0 -22
179 -19 370 3 161 2 167 -26 240 -29 74 -29 80 -37 335 -3 143 -10 275 -14
293 l-7 32 146 0 146 0 0 -60 c0 -118 37 -226 85 -248 14 -7 59 -12 99 -12 63
0 78 4 115 28 48 32 103 105 127 167 15 41 18 43 67 49 29 3 94 6 144 6 87 0
93 1 109 24 20 31 22 129 3 152 -12 15 -32 16 -161 12 l-148 -6 0 25 c0 46
-62 139 -83 126 -6 -3 -7 -1 -3 6 5 7 -8 18 -34 30 -23 10 -50 32 -60 48 -20
34 -68 47 -132 36 l-38 -6 0 74 c1 41 5 119 10 174 5 55 6 129 2 165 -6 58 -8
49 -13 -85 -4 -82 -10 -185 -14 -227 -6 -62 -5 -82 8 -101 9 -14 12 -29 7 -37
-5 -8 -11 -41 -15 -74 -3 -34 -10 -70 -15 -81 -5 -11 -14 -33 -20 -49 -13 -36
-29 -24 -41 31 -6 27 -7 16 -4 -39 3 -43 1 -78 -4 -78 -9 0 -31 45 -31 65 0 8
-5 17 -12 21 -8 5 -9 -2 -5 -24 8 -41 -3 -44 -143 -40 l-105 3 -9 58 -8 57 41
45 c22 24 43 56 47 70 7 28 -1 149 -11 165 -3 5 -19 -6 -36 -24 -42 -48 -78
-54 -141 -23 l-50 25 -79 -73 c-44 -40 -89 -85 -101 -100 l-21 -27 27 -107
c15 -58 29 -108 31 -110 2 -2 23 11 47 29 l43 32 -35 -32 c-19 -17 -43 -36
-53 -41 -19 -11 -17 -15 -42 76 -9 32 -27 80 -40 106 l-24 46 87 86 c48 47
104 99 124 117 35 30 37 33 23 53 -37 52 -4 137 60 153 78 19 98 -128 24 -179
-28 -21 -21 -29 26 -29 45 0 72 23 86 74 12 48 5 88 -24 124 l-21 27 25 -16
c60 -40 115 -139 135 -242 l14 -70 -3 81 c-5 107 -34 170 -119 250 -35 32 -69
72 -76 88 -12 27 -14 28 -58 22 l-47 -6 5 70 c4 56 10 76 28 95 31 32 7 32
-25 0 -14 -13 -25 -20 -25 -14 0 5 11 21 25 34 29 30 26 31 -24 5 -64 -32
-106 -80 -131 -147 -23 -65 -66 -118 -74 -92 -2 8 -7 41 -10 73 -5 43 -12 63
-26 73 -24 17 -26 61 -4 70 12 4 11 8 -8 17 -31 16 -36 52 -8 61 32 10 43 -8
41 -65 -1 -33 6 -67 19 -97 26 -60 37 -49 14 14 -10 27 -15 57 -11 66 3 8 27
22 54 30 l48 15 -41 1 c-29 1 -47 8 -63 25 l-23 25 36 6 c20 4 82 5 139 3 120
-5 173 -25 163 -61 -4 -12 -9 -35 -11 -52 -5 -30 -5 -30 4 -3 5 15 26 58 47
97 l38 70 32 -47 c17 -26 45 -55 62 -65 17 -9 40 -32 51 -50 16 -27 18 -39 11
-72 -16 -66 -11 -106 21 -195 53 -148 60 -185 60 -337 0 -78 -3 -153 -7 -165
-6 -20 -5 -21 9 -10 9 7 20 34 26 60 5 26 17 69 25 96 16 51 8 86 -18 86 -10
0 -15 34 -20 138 -4 75 -14 175 -23 222 -10 58 -13 110 -9 165 l6 80 -24 -40
c-21 -34 -26 -37 -32 -21 -4 11 1 38 14 69 l22 50 -27 -24 -26 -24 7 30 c6 28
5 29 -9 11 -8 -11 -15 -23 -15 -28 0 -20 -30 -5 -69 35 -40 39 -121 188 -134
246 -6 23 -5 23 50 16 31 -4 75 -13 99 -20 l44 -13 0 56 c0 41 -3 53 -10 42
-5 -8 -10 -23 -10 -32 0 -11 -8 -18 -19 -18 -32 0 -182 50 -246 82 l-59 30 25
-33 c33 -43 59 -94 59 -114 0 -12 -4 -14 -19 -5 -30 16 -46 13 -31 -5 7 -8 9
-15 4 -15 -4 0 -3 -5 4 -12 14 -14 16 -28 4 -28 -5 0 -28 17 -52 37 -51 44
-79 102 -80 161 0 52 25 116 42 109 7 -3 30 -12 51 -21 47 -21 48 -5 2 24 -28
17 -33 25 -24 36 19 23 47 26 81 8 23 -12 51 -17 90 -15 86 3 142 -33 173
-114 l15 -40 -6 40 c-13 91 -83 151 -164 140 -67 -9 -70 -9 -139 17 -93 36
-113 88 -90 228 11 73 11 80 -10 122 -36 74 -61 92 -139 95 -42 2 -78 -3 -97
-12z m149 -39 c36 -15 76 -60 75 -85 0 -9 -5 -4 -10 11 -6 15 -26 37 -45 48
-31 20 -44 21 -136 16 -76 -4 -89 -3 -50 4 29 4 56 11 59 14 11 11 73 6 107
-8z m-73 -56 c22 0 26 -4 22 -20 -3 -10 4 -35 16 -53 12 -19 21 -43 21 -53 0
-15 5 -13 30 11 38 36 45 28 53 -62 4 -36 16 -85 27 -109 20 -41 20 -44 5 -68
-18 -27 -35 -26 -35 1 0 35 -13 1 -15 -39 -5 -108 -101 -211 -215 -232 -79
-14 -92 48 -23 108 69 59 73 65 73 105 0 34 5 42 39 64 21 14 49 41 62 59 l24
33 -38 -29 c-47 -36 -133 -49 -143 -21 -4 10 -1 21 7 26 10 6 10 9 2 9 -19 0
-16 18 5 23 12 3 11 5 -6 6 -18 1 -22 5 -17 20 3 12 0 21 -10 25 -36 13 -9 86
33 86 37 0 72 11 72 21 0 14 -52 11 -81 -5 -38 -19 -53 -6 -45 38 4 20 13 36
19 36 20 0 67 24 67 35 0 5 5 4 12 -3 7 -7 24 -12 39 -12z m-89 -447 c-24 -34
-62 -69 -62 -57 0 8 70 84 78 84 2 0 -5 -12 -16 -27z m105 -449 c-3 -3 -12 -4
-19 -1 -8 3 -5 6 6 6 11 1 17 -2 13 -5z m240 -226 c-3 -8 -6 -5 -6 6 -1 11 2
17 5 13 3 -3 4 -12 1 -19z m-118 -192 c-10 -9 -89 -46 -89 -41 0 6 72 44 84
45 5 0 7 -2 5 -4z m841 -316 c0 -5 -15 -16 -32 -24 -41 -17 -88 -67 -122 -126
-28 -50 -35 -48 -10 3 27 52 63 96 107 128 42 30 57 36 57 19z m55 -40 c15 -7
11 -8 -15 -4 -23 3 -47 -1 -72 -14 -21 -11 -35 -15 -32 -10 8 13 64 37 84 37
8 0 24 -4 35 -9z m-1174 -41 c46 -16 96 -54 113 -87 7 -15 19 -53 26 -86 l12
-58 -39 -40 c-21 -21 -72 -62 -113 -90 -41 -29 -86 -60 -100 -71 -24 -19 -24
-20 -3 -14 19 4 21 2 13 -13 -6 -10 -10 -31 -9 -47 0 -26 1 -26 9 -7 5 12 13
25 19 28 6 4 3 -10 -5 -30 -8 -20 -13 -38 -11 -40 2 -3 10 9 17 26 7 16 17 27
22 24 6 -4 5 3 -1 14 -6 11 -11 23 -11 26 0 12 79 51 145 71 l74 23 7 -31 c3
-18 10 -36 14 -42 4 -5 13 -28 20 -50 18 -56 56 -130 103 -200 37 -54 41 -67
47 -145 7 -82 58 -242 68 -212 2 7 16 -14 32 -46 26 -56 108 -192 115 -192 2
0 -14 37 -35 83 -57 122 -82 203 -88 287 l-5 74 24 -15 c13 -9 37 -37 53 -62
23 -38 30 -64 38 -139 14 -147 26 -220 39 -232 12 -12 6 104 -11 219 -8 50
-110 348 -124 362 -2 3 -14 -1 -26 -7 -34 -18 -70 11 -70 55 l0 35 40 -20 c22
-11 40 -16 40 -12 0 11 -55 88 -69 97 -6 3 -11 10 -11 14 0 7 70 44 75 39 11
-12 50 -100 73 -165 26 -70 83 -187 67 -138 -25 77 -100 299 -121 353 -13 36
-22 67 -20 69 7 8 109 -26 131 -43 19 -14 20 -26 18 -214 -1 -112 2 -200 7
-200 5 0 18 -30 30 -66 17 -56 20 -94 21 -243 0 -186 12 -387 23 -399 4 -3 11
0 15 7 5 8 11 9 14 4 4 -6 0 -18 -7 -28 -12 -17 -17 -15 -69 34 -53 50 -55 53
-46 87 11 36 13 30 -113 304 -45 97 -44 75 1 -50 28 -79 65 -250 56 -259 -3
-2 -11 1 -19 8 -11 9 -27 7 -73 -12 -64 -26 -68 -42 -11 -42 47 0 53 -14 25
-56 -39 -56 -40 -56 -218 -5 -220 62 -317 79 -482 80 -90 1 -131 4 -118 10 29
12 34 37 17 77 -9 19 -15 29 -16 23 0 -6 -23 -21 -50 -32 -59 -24 -58 -11 1
19 49 25 54 37 40 95 -11 45 -11 46 36 122 26 42 90 133 141 201 51 68 100
137 109 154 32 64 54 145 58 222 l5 80 -24 -110 c-21 -102 -53 -182 -90 -230
-9 -12 -5 5 9 40 34 84 31 105 -4 23 -16 -36 -78 -142 -139 -235 -61 -93 -116
-180 -121 -194 -6 -13 -19 -35 -30 -49 -19 -24 -21 -25 -48 -8 -39 23 -50 44
-37 66 17 26 27 21 39 -20 24 -87 32 -24 9 77 -7 29 -6 30 13 12 23 -20 26
-19 90 78 81 121 105 183 162 430 17 71 29 131 27 132 -8 9 -56 -88 -75 -154
-22 -73 -69 -186 -70 -167 -1 18 85 262 106 299 8 14 6 25 -9 46 -11 15 -23
47 -25 72 -5 41 -2 49 26 77 21 21 31 41 31 61 0 53 19 88 137 247 13 17 25
32 27 32 2 0 18 -5 37 -11z m1144 -58 c-44 -27 -65 -54 -80 -103 -8 -24 -14
-34 -14 -23 -1 55 70 145 114 145 6 0 -3 -8 -20 -19z m-1914 -89 c-64 -64 -85
-127 -79 -231 4 -55 3 -69 -4 -51 -6 14 -8 63 -5 111 5 94 26 141 87 192 52
44 53 31 1 -21z m1706 6 c-3 -8 -6 -5 -6 6 -1 11 2 17 5 13 3 -3 4 -12 1 -19z
m70 0 c-3 -8 -6 -5 -6 6 -1 11 2 17 5 13 3 -3 4 -12 1 -19z m155 14 c-6 -5
-19 -17 -28 -28 -8 -10 -12 -12 -8 -4 12 26 26 40 38 40 7 0 7 -3 -2 -8z
m-1582 -42 c0 -13 -1 -13 -10 0 -5 8 -10 22 -10 30 0 13 1 13 10 0 5 -8 10
-22 10 -30z m1644 21 c3 -5 -3 -11 -15 -14 -16 -4 -18 -3 -8 9 13 16 16 17 23
5z m-297 -43 c-3 -7 -5 -2 -5 12 0 14 2 19 5 13 2 -7 2 -19 0 -25z m70 10 c-3
-8 -6 -5 -6 6 -1 11 2 17 5 13 3 -3 4 -12 1 -19z m-159 -25 c3 -10 -39 -13
-189 -13 -121 0 -189 4 -183 9 21 22 364 25 372 4z m62 -9 c0 -8 -4 -14 -10
-14 -5 0 -10 9 -10 21 0 11 5 17 10 14 6 -3 10 -13 10 -21z m640 8 c0 -17 -13
-20 -137 -25 -75 -4 -162 -7 -194 -7 -52 0 -57 2 -52 20 5 18 16 20 122 23 64
1 149 4 189 5 64 2 72 0 72 -16z m-2252 -18 c-15 -8 -34 -27 -42 -42 -9 -15
-15 -21 -16 -14 0 8 13 27 29 43 16 16 35 29 43 29 7 -1 1 -7 -14 -16z m1699
-126 c-2 -29 -3 -8 -3 47 0 55 1 79 3 53 2 -26 2 -71 0 -100z m120 110 c-3 -8
-6 -5 -6 6 -1 11 2 17 5 13 3 -3 4 -12 1 -19z m-1577 -35 c0 -21 3 -49 6 -63
5 -24 5 -24 -10 -6 -18 22 -22 106 -6 106 6 0 10 -17 10 -37z m1537 -25 c-3
-7 -5 -2 -5 12 0 14 2 19 5 13 2 -7 2 -19 0 -25z m-1840 -20 c-3 -8 -6 -5 -6
6 -1 11 2 17 5 13 3 -3 4 -12 1 -19z m487 13 c30 -12 3 -22 -49 -20 -29 2 -45
7 -45 16 0 14 61 17 94 4z m-320 -16 c4 -11 -2 -15 -24 -15 -22 0 -30 -5 -30
-17 0 -16 -1 -16 -17 -1 -13 14 -14 20 -3 32 16 20 66 21 74 1z m-366 -5 c6 0
12 -4 12 -10 0 -5 -18 -10 -40 -10 -32 0 -38 3 -33 16 4 10 13 14 27 10 11 -3
27 -6 34 -6z m552 -5 c0 -8 -7 -15 -15 -15 -8 0 -15 7 -15 15 0 8 7 15 15 15
8 0 15 -7 15 -15z m580 6 c-8 -5 -26 -11 -40 -15 -21 -5 -20 -3 5 9 32 15 60
20 35 6z m1060 -11 c0 -16 -61 -80 -77 -80 -15 0 -63 47 -63 62 0 4 13 -6 29
-24 28 -32 29 -32 55 -14 15 9 32 28 38 42 12 25 18 30 18 14z m-727 -27 c27
-8 46 -17 44 -19 -2 -3 -17 0 -32 6 -79 30 -115 32 -170 6 -29 -13 -71 -40
-94 -61 -22 -21 -41 -33 -41 -27 0 14 88 77 141 102 47 21 68 20 152 -7z
m-404 13 c-2 -2 -15 -9 -29 -15 -24 -11 -24 -11 -6 3 16 13 49 24 35 12z
m-862 -48 c-3 -7 -5 -2 -5 12 0 14 2 19 5 13 2 -7 2 -19 0 -25z m163 -2 c0 -2
-8 -10 -17 -17 -16 -13 -17 -12 -4 4 13 16 21 21 21 13z m1607 -28 c-3 -8 -6
-5 -6 6 -1 11 2 17 5 13 3 -3 4 -12 1 -19z m-1662 2 c13 -6 15 -9 5 -9 -8 0
-22 4 -30 9 -18 12 -2 12 25 0z m-17 -65 c15 -4 35 1 60 14 36 21 36 21 13 1
-13 -11 -34 -23 -46 -26 -29 -7 -81 19 -96 49 -11 20 -9 20 17 -4 16 -15 39
-30 52 -34z m1153 -312 c9 -10 19 -27 23 -37 7 -20 7 -20 -15 0 -11 10 -30 32
-42 48 -19 27 -19 28 -1 18 11 -6 26 -18 35 -29z m-881 -549 c-18 -21 -51 -17
-93 12 -21 14 -37 27 -35 29 2 1 27 -2 57 -8 48 -10 55 -10 65 6 10 16 11 16
14 -3 2 -12 -2 -28 -8 -36z m-163 -19 c0 -17 -13 -20 -21 -6 -4 5 0 12 6 14 7
3 13 6 14 6 0 1 1 -6 1 -14z m60 -31 c-30 -20 -36 -29 -27 -39 21 -25 -145
-47 -195 -25 -19 8 -19 9 3 9 62 2 178 34 205 57 16 13 34 24 40 24 6 0 -5
-12 -26 -26z m133 -29 c-28 -33 -142 -85 -212 -96 -73 -11 -234 -4 -243 11 -3
4 60 10 139 12 l144 3 79 42 c84 44 114 54 93 28z m800 -55 c-8 -5 -22 -9 -30
-9 -10 0 -8 3 5 9 27 12 43 12 25 0z m-168 -115 c124 -17 127 -18 105 -35 -53
-41 -57 -41 -229 -9 -89 17 -169 35 -175 41 -42 34 61 35 299 3z m205 -5 c-6
-16 -18 -30 -27 -29 -10 0 -11 2 -2 6 6 2 12 10 12 17 0 10 19 36 26 36 1 0
-3 -13 -9 -30z m140 -5 c15 -13 23 -25 17 -25 -6 0 -24 11 -40 25 -16 14 -24
25 -17 25 7 0 25 -11 40 -25z m-46 -16 c10 -19 9 -20 -13 -14 l-23 7 23 -17
24 -17 -28 -19 c-38 -25 -152 -51 -205 -47 -42 3 -43 4 -19 15 14 7 51 19 83
28 38 10 71 28 95 50 44 41 48 42 63 14z m169 -7 c0 -15 -34 -39 -71 -51 -20
-6 -63 -28 -95 -47 -64 -39 -137 -56 -203 -47 -66 9 -56 18 22 19 81 1 126 17
196 68 57 41 151 77 151 58z"/>
<path d="M2701 4164 c0 -11 3 -14 6 -6 3 7 2 16 -1 19 -3 4 -6 -2 -5 -13z"/>
<path d="M2495 4100 c3 -5 8 -10 11 -10 2 0 4 5 4 10 0 6 -5 10 -11 10 -5 0
-7 -4 -4 -10z"/>
<path d="M2655 3913 c4 -33 1 -44 -12 -53 -14 -8 -12 -9 12 -4 17 4 37 10 45
15 12 7 10 8 -7 9 -16 0 -24 9 -32 38 l-11 37 5 -42z"/>
<path d="M2563 3734 c-6 -25 -7 -42 -3 -37 9 9 25 83 18 83 -3 0 -9 -21 -15
-46z"/>
<path d="M2405 2365 c-49 -24 -97 -50 -105 -57 -23 -19 -40 -65 -39 -101 l1
-32 8 27 c15 51 51 88 136 140 47 28 87 55 90 60 7 11 9 12 -91 -37z"/>
<path d="M2115 3758 c-20 -19 -38 -47 -41 -65 -11 -57 12 -37 81 70 24 37 3
35 -40 -5z"/>
<path d="M2162 3738 c-22 -29 -52 -65 -66 -80 -26 -27 -26 -29 -11 -64 8 -20
12 -40 9 -45 -3 -5 0 -17 5 -26 10 -17 10 -17 11 -1 0 10 9 22 19 28 22 11 41
13 26 2 -5 -4 -17 -16 -25 -26 -15 -19 -14 -19 13 -2 15 10 27 22 27 26 0 4 6
10 14 13 11 4 13 -18 11 -121 l-1 -125 -47 -43 c-57 -51 -69 -81 -63 -153 5
-50 4 -52 -4 -16 -5 22 -9 65 -10 95 -1 47 -3 51 -11 30 -11 -27 -1 -227 11
-235 15 -9 30 58 30 130 0 76 6 89 56 123 23 16 34 18 42 10 29 -29 37 11 42
205 3 106 4 194 3 195 -5 10 -49 -14 -89 -49 -51 -44 -59 -48 -45 -20 14 24
80 77 115 90 14 6 26 15 26 21 0 12 -38 90 -44 90 -2 0 -22 -24 -44 -52z"/>
<path d="M3175 3730 c5 -8 17 -26 27 -40 10 -14 22 -58 28 -99 13 -96 30 -128
25 -46 l-5 60 29 -85 c16 -47 29 -82 30 -78 3 22 -43 186 -59 212 -19 32 -90
103 -75 76z"/>
<path d="M3187 3488 c15 -32 29 -56 31 -54 5 6 -24 68 -42 91 -9 11 -4 -6 11
-37z"/>
<path d="M2150 3501 c-5 -11 -10 -60 -10 -110 0 -49 -4 -93 -10 -96 -5 -3 -10
-11 -10 -17 0 -6 9 -3 19 6 17 15 20 34 23 127 2 60 2 109 1 109 -1 0 -7 -9
-13 -19z"/>
<path d="M3347 3295 c3 -16 12 -50 20 -75 l13 -45 -5 48 c-3 26 -12 60 -20 75
l-15 27 7 -30z"/>
<path d="M2931 3214 c0 -11 3 -14 6 -6 3 7 2 16 -1 19 -3 4 -6 -2 -5 -13z"/>
<path d="M2125 3201 c-3 -6 -5 -56 -4 -113 1 -57 -1 -119 -4 -138 l-7 -35 16
35 c15 33 32 191 26 238 -3 23 -16 29 -27 13z"/>
<path d="M2211 3159 c0 -20 -8 -56 -16 -80 -13 -39 -13 -42 0 -25 18 24 28 73
22 112 -4 26 -4 25 -6 -7z"/>
<path d="M3293 3040 c0 -25 2 -35 4 -22 2 12 2 32 0 45 -2 12 -4 2 -4 -23z"/>
<path d="M3366 2939 c-4 -23 -5 -44 -2 -46 2 -2 7 14 11 37 4 23 5 43 2 46 -2
3 -7 -14 -11 -37z"/>
<path d="M2076 2920 c4 -30 8 -57 10 -59 9 -10 3 86 -6 99 -7 10 -8 -2 -4 -40z"/>
<path d="M3352 2850 c0 -14 2 -19 5 -12 2 6 2 18 0 25 -3 6 -5 1 -5 -13z"/>
<path d="M1902 2300 c0 -14 2 -19 5 -12 2 6 2 18 0 25 -3 6 -5 1 -5 -13z"/>
<path d="M1239 990 c-31 -5 -72 -15 -90 -23 l-34 -15 28 -11 c70 -28 350 -22
380 8 31 31 -169 59 -284 41z"/>
<path d="M2823 743 c20 -2 54 -2 75 0 20 2 3 4 -38 4 -41 0 -58 -2 -37 -4z"/>
</g>
</svg>